# Blender v2.79 (sub 0) OBJ File: ''
# www.blender.org
mtllib blooms.mtl
o Cube
v 1.000000 -1.000000 -1.000000
v 1.000000 0.015936 1.000000
v -1.000000 -1.000000 1.000000
v -1.000000 -1.322274 -1.462480
v 1.000000 1.000000 -0.999999
v -1.000000 1.000000 1.000000
v -1.000000 0.238370 -1.000000
vn 0.2761 -0.9206 0.2761
vn -1.0000 -0.0000 -0.0000
vn 0.0795 0.1284 -0.9885
vn -0.3353 0.8804 -0.3353
vn 1.0000 -0.0000 0.0000
vn 0.4039 0.8208 0.4039
vn -0.0000 0.0000 1.0000
usemtl Material
s off
f 1//1 2//1 3//1 4//1
f 3//2 6//2 7//2 4//2
f 5//3 1//3 4//3 7//3
f 7//4 6//4 5//4
f 2//5 1//5 5//5
f 5//6 6//6 2//6
f 2//7 6//7 3//7
